<?xml version="1.0" standalone="no"?>
<!DOCTYPE svg PUBLIC "-//W3C//DTD SVG 20010904//EN"
 "http://www.w3.org/TR/2001/REC-SVG-20010904/DTD/svg10.dtd">
<svg version="1.0" xmlns="http://www.w3.org/2000/svg"
 width="1500.000000pt" height="821.000000pt" viewBox="0 0 1500.000000 821.000000"
 preserveAspectRatio="xMidYMid meet">

<g transform="translate(0.000000,821.000000) scale(0.100000,-0.100000)"
fill="#000000" stroke="none">
<path d="M0 4105 l0 -4105 7500 0 7500 0 0 4105 0 4105 -7500 0 -7500 0 0
-4105z m5070 -3025 l0 -380 -55 0 -55 0 0 36 0 36 -32 -27 c-42 -35 -72 -46
-130 -47 -70 0 -113 18 -157 68 -49 56 -71 118 -71 204 0 84 21 155 60 202 77
93 224 105 305 24 l25 -25 0 138 c0 76 3 141 7 144 3 4 28 7 55 7 l48 0 0
-380z m4900 0 l0 -380 -50 0 -50 0 0 42 0 42 -32 -31 c-48 -44 -72 -54 -137
-54 -107 -1 -183 62 -218 180 -18 65 -13 167 12 227 61 146 237 190 348 86
l27 -26 0 147 0 147 50 0 50 0 0 -380z m-6235 329 c52 -13 116 -65 139 -113
20 -42 21 -144 3 -189 -14 -32 -88 -107 -107 -107 -20 0 -9 -22 80 -158 l89
-137 -56 -3 c-31 -2 -61 -1 -68 1 -6 3 -49 66 -94 142 l-83 136 -47 -3 -46 -3
-3 -138 -3 -138 -52 3 -52 3 -2 358 -2 357 130 0 c72 0 150 -5 174 -11z m2062
-4 c137 -41 201 -204 128 -330 -46 -80 -123 -115 -251 -115 l-84 0 0 -130 0
-130 -55 0 -55 0 0 360 0 360 133 0 c90 0 150 -5 184 -15z m2798 4 c100 -27
158 -104 158 -209 0 -79 -33 -144 -89 -179 -24 -14 -44 -29 -44 -32 0 -3 36
-60 80 -127 116 -178 112 -162 37 -162 l-65 0 -86 140 -87 140 -44 0 -45 0 0
-140 0 -140 -55 0 -55 0 0 360 0 360 128 0 c70 0 145 -5 167 -11z m-1275 -99
l0 -70 70 0 70 0 0 -40 0 -40 -70 0 -70 0 0 -165 c0 -152 2 -167 20 -185 22
-22 78 -27 111 -10 17 10 19 7 19 -34 0 -55 -15 -66 -92 -66 -67 0 -116 24
-143 70 -18 31 -20 56 -23 213 l-4 177 -39 0 c-39 0 -39 0 -39 40 l0 40 40 0
40 0 0 63 c0 35 3 67 7 70 3 4 28 7 55 7 l48 0 0 -70z m-2975 -79 c51 -23 101
-79 114 -128 6 -21 11 -68 11 -105 l0 -68 -181 0 -180 0 6 -22 c9 -32 36 -68
69 -92 37 -28 156 -35 210 -12 21 9 40 16 43 16 2 0 3 -21 1 -47 -3 -43 -6
-47 -38 -59 -43 -15 -162 -17 -212 -4 -53 15 -119 68 -147 120 -29 52 -39 164
-21 238 34 143 194 223 325 163z m2015 -3 c32 -16 52 -36 70 -68 24 -44 25
-50 25 -250 l0 -205 -52 -3 -53 -3 -1 33 c0 18 -3 27 -6 20 -10 -25 -81 -52
-135 -52 -102 0 -168 61 -168 154 0 108 66 157 219 164 l93 4 -5 46 c-7 65
-40 92 -112 92 -30 0 -78 -9 -105 -19 l-51 -19 3 51 c3 51 4 52 43 63 22 7 74
13 115 13 60 1 85 -4 120 -21z m607 -4 c16 -12 38 -36 51 -54 21 -32 22 -41
22 -251 l0 -219 -50 0 -50 0 0 184 c0 108 -5 196 -11 215 -20 58 -96 78 -156
41 -63 -38 -68 -55 -71 -257 l-4 -183 -49 0 -49 0 0 270 0 270 50 0 50 0 0
-42 0 -42 28 32 c42 49 78 64 149 60 43 -3 71 -10 90 -24z m906 11 c13 -5 17
-19 17 -56 l0 -48 -35 15 c-45 19 -125 18 -153 -2 -27 -19 -29 -64 -4 -86 9
-9 49 -32 87 -52 110 -56 135 -85 135 -156 0 -99 -69 -150 -200 -149 -41 0
-91 6 -110 13 -33 12 -35 16 -38 61 -3 42 -1 47 15 42 114 -37 133 -40 173
-28 29 9 41 18 46 37 11 44 -9 66 -101 114 -113 57 -139 90 -133 168 8 96 86
146 213 138 39 -2 78 -7 88 -11z m1340 4 c48 -13 112 -70 139 -123 26 -51 35
-165 18 -235 -32 -133 -162 -211 -303 -181 -113 23 -187 115 -195 244 -5 87 8
139 52 203 61 88 174 124 289 92z m1180 -5 c18 -9 42 -28 54 -42 l23 -27 0 38
0 37 55 0 55 0 0 -237 c0 -131 -5 -267 -10 -303 -12 -85 -48 -136 -119 -172
-47 -24 -66 -28 -135 -27 -45 0 -99 6 -121 13 -39 11 -40 12 -43 64 -2 28 -1
52 1 52 3 0 22 -7 43 -16 59 -25 176 -24 211 2 39 29 63 81 63 139 0 48 -1 49
-16 27 -40 -58 -151 -79 -229 -43 -136 62 -178 275 -82 418 56 83 168 118 250
77z m612 5 c52 -15 119 -82 134 -134 6 -22 11 -70 11 -107 l0 -68 -179 0 -180
0 9 -32 c12 -40 46 -77 87 -94 43 -18 145 -18 190 1 19 8 37 15 40 15 2 0 3
-21 1 -47 -3 -44 -5 -47 -43 -60 -58 -21 -198 -13 -250 14 -91 48 -134 127
-135 244 0 128 42 208 133 254 56 27 116 32 182 14z m553 -41 l4 -48 -41 0
c-55 0 -87 -17 -114 -59 -20 -33 -22 -51 -25 -213 l-4 -178 -49 0 -49 0 0 270
0 270 50 0 50 0 0 -42 0 -43 20 30 c26 40 77 66 120 63 34 -3 35 -4 38 -50z"/>
<path d="M4749 1137 c-50 -33 -69 -79 -69 -165 0 -82 13 -116 60 -156 62 -51
159 -25 201 54 28 52 26 163 -4 214 -41 72 -125 96 -188 53z"/>
<path d="M9663 1144 c-49 -24 -75 -74 -81 -153 -3 -54 0 -77 16 -114 51 -115
189 -117 249 -3 25 46 23 162 -3 206 -42 72 -114 97 -181 64z"/>
<path d="M3547 1323 c-4 -3 -7 -62 -7 -130 l0 -123 75 0 c48 0 87 6 105 15 83
43 79 195 -5 231 -35 14 -156 20 -168 7z"/>
<path d="M5590 1190 l0 -140 73 0 c122 0 179 45 179 140 0 95 -57 140 -179
140 l-73 0 0 -140z"/>
<path d="M8410 1200 l0 -130 70 0 c117 0 160 35 160 130 0 94 -45 130 -165
130 l-65 0 0 -130z"/>
<path d="M4177 1139 c-29 -22 -50 -57 -61 -101 l-6 -28 130 0 130 0 0 30 c0
38 -23 84 -52 104 -32 23 -107 20 -141 -5z"/>
<path d="M6195 928 c-31 -17 -45 -39 -45 -74 0 -77 114 -100 172 -35 22 24 28
41 28 76 l0 45 -67 0 c-38 0 -77 -6 -88 -12z"/>
<path d="M9053 1140 c-45 -27 -66 -73 -70 -155 -4 -59 -1 -77 19 -115 83 -161
268 -93 268 99 0 77 -23 137 -65 169 -36 29 -108 30 -152 2z"/>
<path d="M10272 1140 c-87 -53 -95 -230 -14 -301 32 -28 40 -31 84 -27 88 9
135 79 125 188 -6 70 -28 115 -70 140 -41 25 -83 25 -125 0z"/>
<path d="M10856 1139 c-28 -22 -49 -58 -60 -101 l-6 -28 130 0 130 0 0 25 c0
38 -25 90 -51 109 -34 23 -110 21 -143 -5z"/>
</g>
</svg>
