<?xml version="1.0" standalone="no"?>
<!DOCTYPE svg PUBLIC "-//W3C//DTD SVG 20010904//EN"
 "http://www.w3.org/TR/2001/REC-SVG-20010904/DTD/svg10.dtd">
<svg version="1.0" xmlns="http://www.w3.org/2000/svg"
 width="1500.000000pt" height="935.000000pt" viewBox="0 0 1500.000000 935.000000"
 preserveAspectRatio="xMidYMid meet">

<g transform="translate(0.000000,935.000000) scale(0.100000,-0.100000)"
fill="#000000" stroke="none">
<path d="M0 4675 l0 -4675 7500 0 7500 0 0 4675 0 4675 -7500 0 -7500 0 0
-4675z m7546 4102 c22 -39 118 -207 214 -372 288 -499 307 -532 448 -775 74
-129 173 -300 219 -380 l83 -145 -505 -3 c-278 -1 -732 -1 -1010 0 l-505 3
213 370 c210 363 249 432 557 965 85 146 172 298 194 337 23 40 43 73 46 73 3
0 23 -33 46 -73z m6229 -4102 l0 -1730 -6275 0 -6275 0 -2 1724 c-2 947 0
1727 3 1732 3 5 2567 8 6277 7 l6272 -3 0 -1730z m-2376 -2573 c47 -81 140
-244 209 -362 68 -118 159 -276 202 -350 125 -216 337 -583 427 -739 46 -79
83 -145 83 -147 0 -2 -2169 -4 -4821 -4 l-4821 0 35 63 c19 34 83 145 142 247
59 102 168 291 243 420 74 129 179 312 234 405 54 94 155 270 225 392 l128
223 3815 0 3815 0 84 -148z"/>
<path d="M1295 6328 c-3 -7 -4 -755 -3 -1663 l3 -1650 6205 0 6205 0 0 1660 0
1660 -6203 3 c-4957 2 -6204 0 -6207 -10z m12275 -1653 l0 -1525 -6070 0
-6070 0 0 1525 0 1525 6070 0 6070 0 0 -1525z"/>
<path d="M6773 5975 c-246 -53 -401 -249 -459 -575 -24 -131 -24 -430 0 -560
60 -338 215 -521 486 -576 170 -34 378 -2 502 78 116 74 215 225 257 393 59
239 55 588 -10 809 -69 233 -223 386 -435 431 -85 18 -258 18 -341 0z m252
-216 c82 -15 144 -49 198 -109 92 -102 111 -207 104 -581 -4 -271 -10 -314
-52 -402 -28 -60 -92 -124 -153 -154 -52 -26 -67 -28 -167 -28 -134 0 -187 17
-258 84 -58 54 -91 116 -113 208 -13 56 -15 123 -12 378 4 298 5 312 27 370
54 137 126 202 254 230 78 17 100 18 172 4z"/>
<path d="M9810 5974 c-143 -31 -275 -127 -351 -255 -153 -258 -174 -800 -42
-1113 53 -126 145 -237 242 -289 70 -38 190 -67 280 -67 190 0 332 82 382 221
36 97 49 79 49 -66 l0 -125 115 0 115 0 0 445 0 445 -280 0 -280 0 0 -110 0
-110 156 0 157 0 -5 -114 c-4 -103 -7 -120 -36 -179 -36 -72 -80 -113 -159
-150 -41 -19 -65 -22 -168 -22 -118 0 -121 1 -184 35 -75 40 -129 102 -163
187 -22 56 -23 71 -26 381 -4 353 1 394 49 491 70 140 230 212 401 181 145
-26 212 -85 295 -258 4 -10 203 115 203 128 0 29 -61 121 -125 189 -115 121
-250 172 -457 170 -57 0 -132 -7 -168 -15z"/>
<path d="M1640 5120 l0 -840 125 0 125 0 2 343 3 342 146 3 c109 2 149 -1 156
-10 5 -7 42 -92 83 -188 41 -96 104 -245 140 -330 l66 -155 143 -3 c113 -2
142 0 138 10 -3 7 -73 162 -156 345 -83 182 -151 335 -151 340 0 4 27 21 60
37 146 70 220 222 220 451 0 236 -78 390 -234 462 l-61 28 -402 3 -403 3 0
-841z m750 595 c66 -40 75 -69 75 -255 0 -186 -9 -215 -75 -255 -32 -19 -52
-20 -265 -20 l-230 0 -3 278 -2 278 232 -3 c213 -3 236 -5 268 -23z"/>
<path d="M3070 5120 l0 -840 125 0 125 0 2 338 3 337 265 6 c283 5 301 8 393
63 48 27 103 88 131 144 50 99 71 306 45 447 -26 143 -110 259 -223 312 l-61
28 -402 3 -403 3 0 -841z m745 594 c68 -35 80 -72 80 -254 0 -171 -8 -199 -68
-244 -27 -20 -43 -21 -268 -24 l-239 -3 0 269 c0 148 3 272 7 276 4 4 107 6
228 4 199 -3 224 -5 260 -24z"/>
<path d="M4950 5120 l0 -840 130 0 130 0 0 345 0 346 150 -3 151 -3 53 -125
c30 -69 95 -223 146 -342 l92 -218 143 0 143 0 -160 351 c-88 193 -158 352
-156 353 2 1 25 12 52 24 69 32 111 67 146 119 70 106 98 260 79 429 -23 211
-109 334 -268 384 -59 19 -91 20 -447 20 l-384 0 0 -840z m756 594 c67 -49 69
-58 69 -254 0 -166 -1 -181 -21 -207 -47 -63 -66 -68 -316 -71 l-228 -3 0 281
0 281 234 -3 c219 -3 236 -4 262 -24z"/>
<path d="M7910 5120 l0 -840 323 0 c245 0 339 4 392 15 249 53 401 246 450
575 17 112 19 366 4 477 -37 276 -140 459 -308 547 -116 61 -155 66 -528 66
l-333 0 0 -840z m642 609 c102 -21 179 -85 224 -184 37 -83 47 -188 42 -477
-5 -297 -16 -353 -83 -441 -76 -99 -164 -127 -407 -127 l-168 0 0 620 0 620
170 0 c93 0 193 -5 222 -11z"/>
<path d="M10930 5120 l0 -840 490 0 490 0 0 110 0 110 -360 0 -360 0 0 265 0
265 325 0 325 0 0 110 0 110 -325 0 -325 0 0 245 0 245 360 0 360 0 0 110 0
110 -490 0 -490 0 0 -840z"/>
<path d="M12230 5121 l0 -841 125 0 125 0 2 343 3 342 148 3 148 3 28 -63 c15
-35 81 -190 147 -345 l119 -283 142 0 143 0 -9 23 c-5 12 -77 170 -159 351
l-150 328 68 34 c103 52 157 120 196 249 26 85 26 315 0 400 -39 130 -107 213
-214 263 l-57 27 -402 3 -403 3 0 -840z m750 594 c63 -37 75 -78 75 -255 0
-181 -12 -218 -81 -254 -35 -19 -60 -21 -266 -24 l-228 -3 0 281 0 281 233 -3
c212 -3 235 -5 267 -23z"/>
<path d="M4631 4102 l-24 -7 26 -12 c15 -7 29 -23 32 -35 3 -13 4 -134 3 -271
l-3 -247 60 1 c50 0 56 2 35 10 -13 6 -27 12 -30 15 -3 3 -7 128 -10 277 l-5
272 -30 2 c-16 1 -41 -2 -54 -5z"/>
<path d="M7150 4100 c-16 -5 -19 -8 -8 -9 10 -1 25 -12 33 -25 13 -20 15 -61
13 -280 l-3 -256 55 0 c51 0 53 1 30 13 -25 13 -25 13 -25 151 0 138 0 139 26
158 35 27 94 39 130 26 41 -14 51 -58 47 -216 l-3 -132 50 0 c48 0 49 1 27 16
-21 14 -22 22 -22 145 0 185 -18 219 -115 219 -29 0 -64 -9 -95 -25 l-50 -25
0 125 0 125 -32 -1 c-18 -1 -44 -5 -58 -9z"/>
<path d="M8100 4100 c-15 -5 -19 -8 -8 -9 9 -1 24 -8 32 -17 14 -13 16 -53 16
-280 l0 -264 53 1 c41 0 47 2 30 9 -30 12 -34 35 -31 175 l3 120 44 24 c53 29
114 33 138 8 16 -15 18 -38 18 -177 l0 -160 55 0 c52 1 54 1 30 15 -25 13 -25
16 -30 165 -5 151 -5 152 -33 176 -39 33 -116 33 -174 0 -23 -13 -44 -21 -47
-18 -3 3 -6 59 -6 124 l0 118 -32 -1 c-18 -1 -44 -5 -58 -9z"/>
<path d="M9383 4070 c-64 -13 -109 -38 -149 -82 -63 -70 -85 -160 -64 -261 26
-126 122 -207 244 -207 67 0 147 22 167 46 20 25 5 24 -46 -1 -77 -39 -167
-29 -229 25 -84 74 -108 242 -50 356 39 79 90 108 180 101 88 -6 104 -18 105
-75 l1 -47 13 31 c31 70 30 83 -6 98 -47 19 -116 26 -166 16z"/>
<path d="M1683 4053 c-41 -4 -62 -23 -25 -23 40 0 42 -15 42 -262 l0 -238 58
1 c31 0 50 3 42 6 -37 13 -40 32 -40 265 l0 228 58 0 c79 0 97 -15 97 -78 0
-61 -28 -96 -89 -114 -23 -6 -43 -13 -45 -14 -2 -2 42 -66 97 -144 55 -77 102
-143 104 -148 4 -9 108 -3 108 7 0 4 -16 13 -35 20 -27 9 -51 34 -103 109
-113 159 -108 150 -80 161 75 28 123 112 97 167 -28 58 -104 73 -286 57z"/>
<path d="M2208 4053 c-45 -4 -70 -23 -30 -23 40 0 42 -15 42 -262 l0 -238 58
0 c52 0 55 1 32 13 l-25 13 0 239 0 240 37 3 c20 2 52 -4 71 -12 97 -40 55
-216 -50 -216 -13 0 -23 -5 -23 -11 0 -14 62 -4 108 18 77 36 101 136 47 193
-42 44 -110 55 -267 43z"/>
<path d="M2633 4053 c-42 -4 -62 -23 -25 -23 40 0 42 -15 42 -262 l0 -238 58
0 c52 0 55 1 32 13 l-25 13 -3 237 -2 237 58 0 c79 0 97 -14 97 -78 0 -61 -28
-96 -89 -114 -23 -6 -43 -13 -45 -14 -2 -2 44 -70 102 -151 l105 -148 51 3
c28 2 51 7 51 10 0 4 -17 14 -38 23 -29 12 -54 40 -120 135 -73 104 -81 120
-66 129 93 55 122 97 108 153 -15 59 -50 77 -157 78 -51 1 -111 -1 -134 -3z"/>
<path d="M3543 4047 c-43 -16 -52 -27 -21 -27 13 0 27 -2 29 -5 3 -2 -7 -109
-21 -237 -15 -128 -25 -236 -23 -240 2 -5 25 -8 51 -8 l47 1 -34 14 c-30 14
-33 18 -28 47 4 18 14 108 24 201 9 92 20 164 24 160 13 -13 179 -392 179
-407 0 -16 18 -31 27 -23 2 3 43 101 90 219 46 117 88 216 92 221 5 5 53 -396
51 -433 0 -3 25 -3 56 -2 l56 4 -31 19 c-17 10 -31 27 -31 36 -1 41 -48 464
-53 469 -2 3 -15 0 -28 -6 -19 -9 -41 -54 -107 -221 -46 -115 -87 -209 -91
-209 -4 0 -21 33 -38 73 -98 225 -164 362 -175 364 -7 1 -27 -4 -45 -10z"/>
<path d="M5917 4054 c-7 -7 25 -94 35 -94 3 0 4 15 1 34 -5 34 -5 34 39 41 24
4 58 5 76 3 l33 -3 -1 -252 -1 -253 58 1 c32 0 51 3 43 6 -37 13 -40 32 -40
270 l0 233 44 0 c24 0 58 -3 75 -6 28 -6 31 -10 32 -43 l1 -36 19 43 c11 23
17 47 14 52 -7 11 -417 14 -428 4z"/>
<path d="M11955 4053 c-11 -3 -31 -10 -45 -16 -25 -10 -25 -11 10 -16 40 -7
30 16 130 -306 36 -117 61 -181 70 -183 11 -1 32 51 80 204 35 113 67 207 70
209 3 2 34 -87 68 -198 35 -111 67 -206 72 -211 6 -6 13 -6 19 0 10 10 147
438 157 492 7 35 0 38 -61 22 l-30 -8 28 -1 c18 -1 27 -6 27 -18 1 -10 -25
-107 -57 -216 l-58 -197 -28 92 c-75 245 -111 347 -123 352 -10 4 -33 -57 -85
-217 -40 -122 -74 -213 -76 -202 -13 69 -128 425 -137 424 -6 -1 -20 -4 -31
-6z"/>
<path d="M7888 3965 c-17 -14 -28 -34 -28 -50 0 -20 -5 -25 -25 -25 -16 0 -25
-6 -25 -16 0 -12 6 -15 24 -10 l24 6 4 -161 c3 -145 5 -162 22 -175 24 -17 68
-18 113 -2 48 18 40 28 -16 21 l-50 -6 -11 41 c-6 23 -9 94 -8 159 l3 118 30
3 c106 9 122 24 28 26 l-58 1 3 48 c2 26 2 47 0 47 -2 0 -15 -12 -30 -25z"/>
<path d="M11533 3968 c-12 -13 -23 -34 -25 -48 -2 -16 -11 -26 -26 -30 -29 -6
-29 -25 1 -25 22 0 22 -2 25 -155 3 -173 9 -190 69 -190 33 0 103 23 103 34 0
3 -20 3 -45 -1 -72 -9 -75 -4 -75 168 l0 149 44 0 c46 0 76 7 76 19 0 3 -26 6
-57 6 l-58 0 0 48 c0 26 -3 47 -6 47 -3 0 -15 -10 -26 -22z"/>
<path d="M4330 3901 c-40 -13 -90 -41 -90 -51 0 -13 1 -13 51 10 96 43 163 12
157 -74 l-3 -39 -63 -13 c-80 -16 -130 -47 -149 -92 -46 -110 99 -169 195 -80
l22 21 0 -26 c0 -26 2 -27 53 -27 52 1 52 1 25 16 l-28 15 0 134 c0 83 -5 144
-12 160 -21 47 -89 67 -158 46z m120 -228 c0 -32 -6 -65 -13 -74 -35 -45 -110
-66 -142 -39 -20 16 -19 74 1 105 17 26 81 54 147 64 4 0 7 -25 7 -56z"/>
<path d="M4850 3900 l-25 -8 26 -1 c14 -1 29 -4 33 -8 3 -4 -26 -39 -65 -79
l-72 -73 74 -100 74 -100 48 -1 c30 0 46 4 42 10 -3 6 -12 10 -19 10 -8 0 -50
44 -94 98 l-81 99 75 74 c41 40 74 77 74 81 0 10 -57 9 -90 -2z"/>
<path d="M5144 3891 c-134 -61 -148 -280 -24 -350 59 -33 179 -22 205 19 12
20 -2 22 -29 5 -14 -10 -48 -18 -77 -18 -45 -2 -54 1 -79 30 -30 33 -50 88
-50 135 l0 27 123 3 122 3 3 35 c2 24 -4 47 -20 70 -42 62 -99 75 -174 41z
m125 -37 c12 -15 21 -40 21 -55 l0 -29 -95 0 c-89 0 -95 1 -95 21 0 54 39 88
102 89 39 0 50 -4 67 -26z"/>
<path d="M5493 3895 c-37 -16 -53 -42 -53 -87 0 -38 26 -67 97 -112 58 -35 83
-65 83 -97 0 -51 -59 -72 -129 -48 -25 9 -31 16 -31 40 0 35 -15 38 -24 5 -3
-13 -8 -31 -12 -39 -8 -22 57 -40 128 -35 76 6 113 37 113 97 0 46 -20 72 -85
109 -66 37 -100 72 -100 102 0 37 18 50 66 50 63 0 74 -7 75 -49 l1 -36 13 30
c22 47 18 62 -16 74 -42 15 -87 13 -126 -4z"/>
<path d="M6515 3896 c-40 -17 -90 -75 -105 -122 -29 -87 12 -203 83 -237 60
-29 179 -14 203 25 11 17 -4 20 -33 5 -81 -41 -148 -24 -183 47 -11 23 -20 61
-20 84 l0 41 123 3 122 3 -2 43 c-2 55 -25 90 -68 108 -42 17 -81 17 -120 0z
m100 -22 c19 -8 45 -55 45 -84 0 -19 -6 -20 -100 -20 -62 0 -100 4 -100 10 0
23 29 79 47 89 20 12 82 14 108 5z"/>
<path d="M6905 3895 c-139 -49 -165 -258 -43 -348 50 -37 175 -32 209 9 19 23
4 28 -26 8 -35 -23 -104 -24 -138 -1 -55 36 -82 144 -57 232 19 66 49 87 124
83 l61 -3 5 -35 c6 -40 15 -32 25 21 6 35 5 36 -25 43 -49 9 -91 7 -135 -9z"/>
<path d="M8685 3896 c-43 -19 -92 -78 -106 -128 -22 -82 7 -179 64 -220 54
-39 183 -34 218 8 19 23 4 27 -31 9 -52 -27 -113 -25 -146 5 -34 32 -54 79
-54 129 l0 40 123 3 122 3 -2 43 c-2 55 -25 90 -68 108 -42 17 -81 17 -120 0z
m100 -22 c19 -8 45 -55 45 -84 0 -19 -6 -20 -100 -20 -62 0 -100 4 -100 10 0
23 29 79 47 89 20 12 82 14 108 5z"/>
<path d="M9784 3891 c-103 -47 -140 -180 -83 -293 53 -105 226 -103 296 4 39
58 44 154 11 218 -41 80 -137 110 -224 71z m140 -36 c14 -13 31 -37 37 -52 13
-34 13 -160 1 -193 -32 -83 -147 -88 -205 -8 -25 33 -35 149 -17 202 18 57 45
76 105 76 41 0 58 -5 79 -25z"/>
<path d="M10130 3903 c-36 -7 -49 -23 -18 -23 14 0 29 -7 32 -16 3 -9 6 -87 6
-175 l0 -159 58 1 c50 0 54 2 30 11 l-28 10 0 125 0 126 41 39 c45 43 62 45
67 5 5 -39 18 -33 30 14 8 32 7 41 -4 46 -25 9 -66 -7 -100 -41 l-32 -32 -6
38 c-7 40 -12 42 -76 31z"/>
<path d="M10428 3903 c-32 -5 -38 -23 -8 -23 33 0 41 -42 38 -202 l-3 -148 55
0 c51 0 53 1 30 13 -24 12 -25 16 -28 133 l-3 121 45 41 c25 23 50 42 54 42 5
0 14 -15 19 -32 l10 -33 12 44 c7 23 10 45 7 48 -14 14 -79 -11 -110 -43 l-35
-36 -3 39 c-3 41 -16 46 -80 36z"/>
<path d="M10824 3891 c-134 -61 -149 -280 -24 -350 59 -33 179 -22 205 19 12
20 -2 22 -29 5 -14 -10 -48 -18 -77 -18 -45 -2 -54 1 -79 30 -30 33 -50 88
-50 135 l0 27 123 3 122 3 3 35 c2 24 -4 47 -20 70 -42 62 -99 75 -174 41z
m125 -37 c12 -15 21 -40 21 -55 l0 -29 -95 0 c-89 0 -95 1 -95 21 0 54 39 88
102 89 39 0 50 -4 67 -26z"/>
<path d="M11217 3896 c-77 -29 -116 -92 -117 -189 0 -110 58 -178 160 -185 44
-3 66 1 98 17 23 12 42 26 42 31 0 13 -6 13 -38 -4 -79 -40 -142 -24 -183 47
-45 78 -27 226 31 257 11 6 46 10 78 8 56 -3 57 -3 60 -35 2 -18 7 -33 11 -33
13 0 31 79 19 86 -22 14 -125 14 -161 0z"/>
<path d="M12730 3901 c-40 -13 -90 -41 -90 -51 0 -13 1 -13 51 10 96 43 163
12 157 -74 -2 -32 -7 -41 -23 -44 -59 -8 -140 -39 -166 -63 -24 -22 -29 -35
-29 -72 0 -37 5 -49 26 -66 44 -34 123 -24 172 21 l22 21 0 -26 c0 -26 2 -27
53 -27 44 1 49 2 32 12 -11 6 -23 16 -27 22 -4 6 -8 71 -8 144 0 73 -5 142
-10 153 -22 41 -96 59 -160 40z m120 -229 c0 -60 -8 -78 -50 -106 -29 -19 -91
-21 -108 -4 -22 22 -14 75 16 109 23 26 88 54 135 58 4 1 7 -25 7 -57z"/>
<path d="M13023 3899 c-40 -12 -52 -29 -20 -29 14 0 29 -6 36 -13 18 -23 141
-320 141 -341 -1 -26 -51 -118 -67 -123 -7 -3 -20 5 -30 16 -22 26 -35 26 -57
2 -17 -19 -17 -20 13 -35 77 -40 119 -6 176 141 121 314 144 378 137 383 -4 3
-27 3 -52 -1 -25 -3 -35 -7 -22 -7 12 -1 25 -8 27 -15 3 -7 -17 -77 -44 -157
-35 -103 -51 -139 -56 -125 -32 101 -124 310 -135 312 -8 1 -29 -3 -47 -8z"/>
</g>
</svg>
